<svg width="31" height="43" viewBox="0 0 31 43" fill="none" xmlns="http://www.w3.org/2000/svg">
<g clip-path="url(#clip0_3614_263)">
<path d="M30.482 16.7838C30.482 16.3203 30.3457 15.815 30.1093 15.3562C29.6366 14.4338 28.6457 13.8358 27.5911 13.8358C27.3684 13.8358 27.1457 13.8637 26.932 13.9146C26.2957 14.0676 25.7457 14.4152 25.3366 14.9158C25.1548 15.1429 25.0048 15.3886 24.9002 15.6528C24.8366 14.5775 24.2957 13.7153 23.3638 13.2101C22.9138 12.9691 22.4502 12.8439 21.9866 12.8439C21.4411 12.8439 20.9093 13.0154 20.4048 13.3445C19.8911 13.6829 19.5275 14.1418 19.3093 14.6933C19.1729 13.0803 17.9684 11.8984 16.4048 11.8984C16.3502 11.8984 16.2911 11.8984 16.2366 11.8984C15.4593 11.9401 14.7548 12.2831 14.2548 12.8671C14.0366 13.122 13.8638 13.4187 13.7366 13.7431C13.7366 10.4568 13.7366 7.17518 13.7366 3.88888C13.7366 3.62004 13.732 3.30485 13.682 2.98503C13.4729 1.56668 12.2457 0.495972 10.832 0.495972C10.5729 0.495972 10.3093 0.533053 10.0593 0.607214C8.73657 0.987294 7.91384 2.1368 7.91384 3.61077C7.91384 6.15545 7.91384 8.74185 7.91384 11.2402C7.91384 12.2645 7.91384 13.2889 7.91384 14.3133V24.7933C7.91384 24.8813 7.91839 24.9648 7.92293 25.0343C7.92293 25.0621 7.92748 25.1038 7.92748 25.1363C7.89566 25.0992 7.86384 25.0528 7.82293 25.0065C7.54111 24.6913 7.25475 24.3761 6.97293 24.0609C6.33657 23.3517 5.67293 22.6148 5.01384 21.8963C4.4593 21.2984 3.69566 20.9554 2.91839 20.9554C2.21839 20.9554 1.5593 21.2289 1.06384 21.7202C0.368387 22.4108 0.300205 23.2359 0.863842 24.047L2.42748 26.2904C4.18657 28.8119 5.94566 31.3288 7.70021 33.8549C8.08657 34.4065 8.66384 35.0091 8.90475 35.6302C9.13657 36.2188 9.12748 37.0114 9.14566 37.6372C9.19112 39.0092 9.04566 40.3812 9.04566 41.7578C9.04566 42.1611 9.36839 42.4902 9.76384 42.4902H27.1548C27.5502 42.4902 27.8729 42.1611 27.8729 41.7578C27.8729 39.6117 27.4957 37.0161 28.0866 34.9905C28.2184 34.5317 28.2593 34.0311 28.3729 33.5629C28.632 32.52 28.9957 31.5003 29.3957 30.5037C30.1048 28.7563 30.4684 26.9486 30.482 25.1363C30.5002 22.4896 30.5002 19.7549 30.4729 16.7745L30.482 16.7838Z" fill="white"/>
<path d="M27.1637 43H9.77278C9.1046 43 8.55914 42.4438 8.55914 41.7624C8.55914 41.1552 8.58642 40.5434 8.61369 39.9501C8.65005 39.1946 8.68187 38.4159 8.65914 37.6603V37.424C8.63642 36.877 8.62278 36.2605 8.45005 35.8248C8.30914 35.4679 8.0046 35.0786 7.71369 34.7031C7.56824 34.5177 7.42278 34.3323 7.30005 34.1562C5.67733 31.8201 4.05005 29.4933 2.42278 27.1618L2.02733 26.5963L2.0546 26.5778C1.81824 26.2997 1.39551 25.6925 0.46369 24.3529C-0.240856 23.3471 -0.140856 22.23 0.718235 21.3725C1.3046 20.7885 2.08642 20.4641 2.91824 20.4641C3.83187 20.4641 4.72733 20.8627 5.37278 21.5626C6.03187 22.2764 6.68642 23.0087 7.32278 23.7179L7.41369 23.8199V14.3272V11.2541C7.41369 8.75111 7.41369 6.16471 7.41369 3.62003C7.41369 1.90967 8.37733 0.57012 9.92278 0.129783C10.2182 0.0463512 10.5273 0 10.8319 0C12.491 0 13.9273 1.25612 14.1728 2.91549C14.2273 3.27239 14.2319 3.61076 14.2319 3.89814V12.1904C14.7819 11.7176 15.4682 11.4395 16.2091 11.4024C17.6955 11.3282 18.9455 12.1579 19.5046 13.4511C19.6864 13.2518 19.8955 13.0757 20.1319 12.9227C21.2091 12.2043 22.4546 12.1486 23.591 12.7651C24.3001 13.1498 24.8182 13.7107 25.1137 14.406C25.5682 13.9193 26.1501 13.5809 26.8091 13.4233C27.0637 13.363 27.3228 13.3306 27.5819 13.3306C28.8182 13.3306 29.9773 14.0351 30.5364 15.1198C30.8091 15.6482 30.9591 16.2368 30.9682 16.7791C30.9955 19.7641 30.9955 22.5035 30.9773 25.1455C30.9637 27.0227 30.5864 28.8953 29.8546 30.703C29.4001 31.8294 29.0819 32.7796 28.8546 33.6927C28.8046 33.8827 28.7728 34.0867 28.7364 34.2999C28.691 34.5734 28.641 34.8561 28.5591 35.1388C28.1546 36.5247 28.2319 38.2351 28.3091 39.8898C28.341 40.5434 28.3682 41.1599 28.3682 41.7624C28.3682 42.4438 27.8228 43 27.1546 43H27.1637ZM2.92278 21.4699C2.3546 21.4699 1.81824 21.6924 1.41824 22.091C0.900053 22.6101 0.854599 23.1571 1.27733 23.7643C1.27733 23.7643 2.81369 25.9659 2.84096 26.0077L3.23642 26.5731C4.86369 28.9046 6.49096 31.2361 8.11369 33.5722C8.22733 33.7344 8.35915 33.9013 8.49096 34.0728C8.83187 34.5038 9.18187 34.9534 9.37278 35.4494C9.60915 36.052 9.62733 36.7658 9.64551 37.3961V37.6279C9.67733 38.4251 9.64551 39.227 9.6046 40.0011C9.57733 40.5805 9.55005 41.1784 9.55005 41.7624C9.55005 41.8876 9.65005 41.9895 9.77278 41.9895H27.1637C27.2864 41.9895 27.3864 41.8876 27.3864 41.7624C27.3864 41.183 27.3591 40.5805 27.3319 39.9362C27.2546 38.198 27.1728 36.4042 27.6228 34.8515C27.6864 34.629 27.7273 34.3833 27.7728 34.1284C27.8091 33.9059 27.8501 33.6741 27.9091 33.4424C28.1501 32.4829 28.4819 31.4864 28.9546 30.3183C29.6364 28.6311 29.991 26.8883 30.0046 25.1409C30.0228 22.4989 30.0228 19.7688 29.9955 16.7884C29.9955 16.4037 29.8819 15.9819 29.6773 15.5925C29.2864 14.8324 28.4728 14.3457 27.6001 14.3457C27.4182 14.3457 27.2319 14.3689 27.0546 14.4106C26.5228 14.5404 26.0637 14.8277 25.7273 15.2449C25.5773 15.4303 25.4546 15.6343 25.3682 15.8521C25.2819 16.07 25.0546 16.1951 24.8273 16.158C24.6001 16.1209 24.4273 15.9263 24.4137 15.6899C24.3637 14.786 23.9228 14.0861 23.141 13.6643C22.3182 13.2194 21.4637 13.2611 20.6864 13.7756C20.2637 14.0583 19.9591 14.4291 19.7819 14.888C19.6955 15.1059 19.4773 15.2403 19.2501 15.2032C19.0228 15.1707 18.8455 14.9807 18.8273 14.7443C18.7046 13.3213 17.6364 12.348 16.2728 12.4175C15.6319 12.4546 15.0501 12.7373 14.641 13.2147C14.4591 13.4233 14.3137 13.669 14.2091 13.9424C14.1228 14.1696 13.891 14.2993 13.6546 14.253C13.4228 14.2066 13.2501 13.9981 13.2501 13.757V3.89814C13.2501 3.64784 13.241 3.35583 13.2001 3.06845C13.0273 1.89576 12.0091 1.01046 10.841 1.01046C10.6273 1.01046 10.4091 1.0429 10.2001 1.10316C9.08642 1.42298 8.41824 2.36391 8.41824 3.62003C8.41824 6.16471 8.41824 8.74647 8.41824 11.2494V14.3225V24.8025C8.41824 24.8767 8.42278 24.9462 8.42733 25.0065L8.43642 25.1223C8.44551 25.3448 8.31369 25.5441 8.11369 25.6183C7.90914 25.6925 7.68187 25.6276 7.55005 25.4514C7.52733 25.4236 7.5046 25.3912 7.47278 25.3541L6.62278 24.4085C5.97733 23.6901 5.32278 22.9577 4.66824 22.2486C4.20914 21.7526 3.57733 21.4652 2.93642 21.4652L2.92278 21.4699Z" fill="#1D1E2B"/>
<path d="M13.7455 25.6507C13.4727 25.6507 13.25 25.4236 13.25 25.1455V13.7524C13.25 13.4743 13.4727 13.2472 13.7455 13.2472C14.0182 13.2472 14.2409 13.4743 14.2409 13.7524V25.1455C14.2409 25.4236 14.0182 25.6507 13.7455 25.6507Z" fill="#1D1E2B"/>
<path d="M19.3275 25.6508C19.0548 25.6508 18.832 25.4236 18.832 25.1455V14.698C18.832 14.4199 19.0548 14.1927 19.3275 14.1927C19.6002 14.1927 19.8229 14.4199 19.8229 14.698V25.1455C19.8229 25.4236 19.6002 25.6508 19.3275 25.6508Z" fill="#1D1E2B"/>
<path d="M24.9095 25.6507C24.6368 25.6507 24.4141 25.4236 24.4141 25.1455V15.5555C24.4141 15.2774 24.6368 15.0502 24.9095 15.0502C25.1822 15.0502 25.405 15.2774 25.405 15.5555V25.1455C25.405 25.4236 25.1822 25.6507 24.9095 25.6507Z" fill="#1D1E2B"/>
</g>
<defs>
<clipPath id="clip0_3614_263">
<rect width="31" height="43" fill="white"/>
</clipPath>
</defs>
</svg>
