<svg width="101" height="32" viewBox="0 0 101 32" fill="none" xmlns="http://www.w3.org/2000/svg">
<path d="M15.5592 25.1747C15.5739 26.0995 15.3657 27.0131 14.954 27.8301C14.5115 28.6664 13.9209 29.4056 13.214 30.0076C12.4612 30.6463 11.6076 31.1407 10.6922 31.4681C9.6929 31.8227 8.64501 32.0022 7.59045 31.9992C6.73857 32.0107 5.88946 31.8945 5.06869 31.654C4.30273 31.444 3.56545 31.1317 2.87477 30.7246C2.22667 30.3448 1.63242 29.8711 1.1095 29.3172C0.624702 28.7825 0.247388 28.1502 0 27.4584L2.06779 26.4227L4.06 25.3871C4.33615 25.8641 4.71659 26.2647 5.16958 26.5555C5.81515 26.9362 6.54863 27.1201 7.28785 27.0866C8.02063 27.147 8.74619 26.8987 9.30523 26.3962C9.6742 26.0784 9.90972 25.6206 9.96092 25.1215C9.94752 24.9648 9.89951 24.8135 9.8207 24.6798C9.74188 24.5461 9.63447 24.4336 9.50702 24.3514C9.19709 24.1101 8.85785 23.9136 8.49833 23.7673C8.07456 23.5734 7.62264 23.4567 7.1618 23.422C6.75183 23.3845 6.34635 23.3044 5.95132 23.183C4.75936 22.9383 3.62692 22.4414 2.62258 21.7225C1.94614 21.2292 1.37147 20.5969 0.93304 19.8637C0.600077 19.3318 0.400505 18.7197 0.353007 18.0845C0.353007 17.5357 0.353007 17.0843 0.353007 16.7302C0.344868 15.8093 0.543637 14.8994 0.93304 14.0748C1.30447 13.2498 1.83727 12.5168 2.49652 11.9238C3.18145 11.3096 3.95646 10.8163 4.79133 10.4633C5.69482 10.1089 6.65157 9.92902 7.6157 9.93221C8.4198 9.91947 9.22048 10.045 9.98616 10.304C10.721 10.5498 11.4177 10.9077 12.054 11.3662C12.6743 11.8071 13.2199 12.3547 13.6679 12.986C14.1046 13.6129 14.4371 14.3133 14.6514 15.0573L10.314 16.5709C10.1454 16.047 9.79375 15.6102 9.33048 15.3494C8.84544 15.0345 8.28639 14.8689 7.71659 14.8714C7.46138 14.8651 7.20781 14.9163 6.97294 15.0217C6.73808 15.127 6.52733 15.284 6.35481 15.4822C6.04521 15.7878 5.85618 16.2049 5.82527 16.6506C5.81523 16.8697 5.85585 17.0881 5.9437 17.287C6.03156 17.4859 6.16397 17.6593 6.32957 17.7924C6.65892 18.057 7.03671 18.2468 7.43915 18.3501L8.32179 18.5094H9.15393C10.0071 18.718 10.8489 18.9751 11.6757 19.2795C12.3061 19.5451 12.9067 19.8835 13.4662 20.2886C14.1952 20.8344 14.7732 21.5746 15.141 22.4332C15.5088 23.2918 15.6532 24.2379 15.5592 25.1747ZM46.8543 0.000735724C46.4457 -0.00862982 46.0397 0.0715088 45.662 0.236072C45.2843 0.400635 44.9433 0.646035 44.6604 0.956709C44.368 1.2609 44.1386 1.6256 43.9867 2.02779C43.8348 2.42998 43.7636 2.86094 43.7778 3.29352C43.7661 3.71787 43.8385 4.14014 43.9905 4.53335C44.1424 4.92657 44.3706 5.28209 44.6604 5.57723C44.9417 5.89372 45.2813 6.14645 45.6585 6.31995C46.0358 6.49346 46.4427 6.5841 46.8543 6.58632C47.2602 6.59144 47.6629 6.51196 48.0395 6.35245C48.416 6.19294 48.7588 5.95655 49.0482 5.6569C49.3332 5.35796 49.5581 5.00174 49.7098 4.60943C49.8614 4.21711 49.9366 3.79671 49.9309 3.37319C49.9391 2.9414 49.8653 2.51222 49.7137 2.11091C49.5621 1.70961 49.3358 1.34427 49.0482 1.03637C48.7701 0.713806 48.4316 0.45529 48.0541 0.277068C47.6765 0.0988447 47.2681 0.0047674 46.8543 0.000735724ZM31.7237 10.6226L27.6637 25.8385L23.5028 10.6226H17.7532L23.7802 31.6275H30.8159L33.7411 21.5101L34.069 18.5094L34.3464 21.5101L37.2717 31.6275H38.8099L40.3986 25.8916L36.3638 10.6226H31.7237ZM49.6787 10.6226H43.9291L46.9552 21.2445L49.9561 31.6806H55.4788L53.8901 25.9447L52.15 19.8637L51.3431 16.863L49.6787 10.6226ZM99.8113 14.9511C99.4281 13.9395 98.8334 13.0319 98.0713 12.2956C97.3871 11.678 96.5885 11.2168 95.7261 10.9413C94.9634 10.7087 94.1748 10.5837 93.3809 10.5695C92.8214 10.5684 92.2633 10.6307 91.7165 10.7554C91.13 10.8788 90.5617 11.0842 90.0269 11.3662C89.4931 11.6362 88.9933 11.9752 88.5391 12.3753C88.0781 12.7882 87.6786 13.2715 87.3538 13.8092C87.0009 13.2308 86.5769 12.704 86.0929 12.2425L85.7903 12.0035C85.1969 11.5124 84.5211 11.1431 83.7981 10.9147C83.0354 10.6822 82.2468 10.5571 81.4529 10.543C80.885 10.5403 80.3184 10.6027 79.7633 10.7289C79.1778 10.8563 78.6101 11.0615 78.0737 11.3396C77.54 11.6097 77.0402 11.9486 76.5859 12.3487C76.1328 12.7624 75.7417 13.2459 75.4258 13.7827C75.072 13.1972 74.6388 12.6693 74.1398 12.2159L73.8372 11.8973C73.4688 11.605 73.0714 11.3557 72.652 11.1537C72.1576 10.8932 71.6314 10.7056 71.0884 10.5961C70.5762 10.5598 70.0624 10.5598 69.5502 10.5961C68.6448 10.5813 67.7454 10.7527 66.9024 11.1006C66.0914 11.4245 65.353 11.9218 64.7336 12.5611L63.9266 10.5961H59.1353V31.5478H64.7336V20.4479C64.6306 19.1825 64.9616 17.92 65.6666 16.8896C65.9094 16.5434 66.2244 16.2605 66.5872 16.0626C66.9501 15.8646 67.3512 15.7569 67.7598 15.7477C68.225 15.707 68.6929 15.7765 69.1293 15.9512C69.5657 16.1258 69.9594 16.4011 70.2815 16.7568C70.9595 17.818 71.2628 19.0959 71.1389 20.3682V31.5478H76.712V20.3151C76.6965 19.5611 76.79 18.8089 76.9894 18.0845C77.12 17.5649 77.3615 17.0836 77.6955 16.6771C77.9711 16.355 78.3174 16.1088 78.7042 15.9601C79.0691 15.8253 79.4523 15.7535 79.8389 15.7477C80.2448 15.7476 80.647 15.8287 81.0242 15.9867C81.4224 16.1525 81.777 16.4166 82.0581 16.7568C82.3822 17.1802 82.6223 17.6678 82.7642 18.1907C82.9582 18.8982 83.0517 19.632 83.0416 20.3682V31.5478H88.6651V20.3151C88.6429 19.5625 88.728 18.8106 88.9173 18.0845C89.0577 17.569 89.2981 17.0898 89.6234 16.6771C89.9 16.3439 90.2574 16.0961 90.6573 15.9601C91.013 15.8234 91.3883 15.7516 91.7669 15.7477C92.1808 15.7498 92.5909 15.8308 92.9774 15.9867C93.3721 16.1593 93.7253 16.4224 94.0113 16.7568C94.3262 17.1865 94.5653 17.6722 94.7174 18.1907C94.9021 18.8997 94.987 19.6333 94.9695 20.3682V31.5478H100.568V19.2795C100.605 17.7969 100.348 16.3224 99.8113 14.9511Z" fill="#4154FF"/>
</svg>
