<svg preserveAspectRatio="none" width="100%" height="100%" overflow="visible" style="display: block;" viewBox="0 0 444.014 156" fill="none" xmlns="http://www.w3.org/2000/svg">
<g id="Frame" clip-path="url(#clip0_0_4)">
<g id="Frame 1707485102" clip-path="url(#clip1_0_4)">
<path id="Vector" d="M42.0887 5.95034L41.9571 5.93007L41.9387 6.04966L42.0702 6.06993L42.0887 5.95034Z" fill="var(--fill-0, black)"/>
<path id="Vector_2" d="M54.1664 5.96232L53.8794 5.91809L53.861 6.03768L54.148 6.08191L54.1664 5.96232Z" fill="var(--fill-0, black)"/>
<path id="Vector_3" d="M66.3101 5.98433L65.7361 5.89588L65.7176 6.01547L66.2916 6.10392L66.3101 5.98433Z" fill="var(--fill-0, black)"/>
<path id="Vector_4" d="M78.4953 6.013L77.5505 5.86742L77.5321 5.987L78.4768 6.13258L78.4953 6.013Z" fill="var(--fill-0, black)"/>
<path id="Vector_5" d="M90.7131 6.02832L89.3379 5.8164L89.3139 5.97186L90.6892 6.18378L90.7131 6.02832Z" fill="var(--fill-0, black)"/>
<path id="Vector_6" d="M102.969 6.03703L101.091 5.74771L101.058 5.96297L102.936 6.25229L102.969 6.03703Z" fill="var(--fill-0, black)"/>
<path id="Vector_7" d="M115.249 6.04952L112.821 5.67543L112.779 5.95048L115.206 6.32457L115.249 6.04952Z" fill="var(--fill-0, black)"/>
<path id="Vector_8" d="M127.546 6.06477L124.533 5.60039L124.481 5.93523L127.495 6.39961L127.546 6.06477Z" fill="var(--fill-0, black)"/>
<path id="Vector_9" d="M139.875 6.07875L136.215 5.51486L136.153 5.92146L139.812 6.48536L139.875 6.07875Z" fill="var(--fill-0, black)"/>
<path id="Vector_10" d="M152.222 6.08931L147.881 5.42038L147.805 5.91069L152.146 6.57962L152.222 6.08931Z" fill="var(--fill-0, black)"/>
<path id="Vector_11" d="M164.593 6.10366L159.523 5.32232L159.434 5.89634L164.505 6.67768L164.593 6.10366Z" fill="var(--fill-0, black)"/>
<path id="Vector_12" d="M176.976 6.11985L171.152 5.22241L171.051 5.88015L176.875 6.77759L176.976 6.11985Z" fill="var(--fill-0, black)"/>
<path id="Vector_13" d="M189.377 6.1388L182.764 5.11975L182.65 5.8612L189.263 6.88025L189.377 6.1388Z" fill="var(--fill-0, black)"/>
<path id="Vector_14" d="M201.803 6.15547L194.353 5.00741L194.224 5.84453L201.674 6.99259L201.803 6.15547Z" fill="var(--fill-0, black)"/>
<path id="Vector_15" d="M214.241 6.17397L205.93 4.89324L205.786 5.82603L214.098 7.10676L214.241 6.17397Z" fill="var(--fill-0, black)"/>
<path id="Vector_16" d="M226.691 6.19424L217.495 4.77714L217.336 5.8056L226.533 7.2227L226.691 6.19424Z" fill="var(--fill-0, black)"/>
<path id="Vector_17" d="M239.16 6.21145L229.043 4.65246L228.868 5.78855L238.985 7.34754L239.16 6.21145Z" fill="var(--fill-0, black)"/>
<path id="Vector_18" d="M251.422 6.22117L240.79 4.58294L240.606 5.77883L251.237 7.41706L251.422 6.22117Z" fill="var(--fill-0, black)"/>
<path id="Vector_19" d="M263.531 6.2262L252.684 4.55401L252.496 5.7738L263.343 7.44599L263.531 6.2262Z" fill="var(--fill-0, black)"/>
<path id="Vector_20" d="M275.597 6.44655L264.668 4.32989L264.431 5.55345L275.36 7.67011L275.597 6.44655Z" fill="var(--fill-0, black)"/>
<path id="Vector_21" d="M287.488 7.62374L277.034 3.20596L276.539 4.37626L286.994 8.79404L287.488 7.62374Z" fill="var(--fill-0, black)"/>
<path id="Vector_22" d="M299.703 7.07567L288.706 3.68704L288.325 4.92433L299.321 8.31296L299.703 7.07567Z" fill="var(--fill-0, black)"/>
<path id="Vector_23" d="M311.634 7.81119L300.935 2.9865L300.393 4.18881L311.092 9.0135L311.634 7.81119Z" fill="var(--fill-0, black)"/>
<path id="Vector_24" d="M323.594 8.1438L313.046 2.67458L312.433 3.8562L322.982 9.32542L323.594 8.1438Z" fill="var(--fill-0, black)"/>
<path id="Vector_25" d="M335.96 7.3329L324.509 3.38588L324.067 4.6671L335.518 8.61412L335.96 7.3329Z" fill="var(--fill-0, black)"/>
<path id="Vector_26" d="M348.028 7.39248L336.459 3.30684L335.999 4.60752L347.569 8.69316L348.028 7.39248Z" fill="var(--fill-0, black)"/>
<path id="Vector_27" d="M360.048 7.77209L348.523 2.93374L347.98 4.22791L359.504 9.06626L360.048 7.77209Z" fill="var(--fill-0, black)"/>
<path id="Vector_28" d="M372.016 8.12645L360.63 2.59955L360.012 3.87313L371.398 9.40004L372.016 8.12645Z" fill="var(--fill-0, black)"/>
<path id="Vector_29" d="M383.482 9.49611L373.46 1.37575L372.546 2.50389L382.567 10.6242L383.482 9.49611Z" fill="var(--fill-0, black)"/>
<path id="Vector_30" d="M394.831 10.4661L386.305 0.577882L385.197 1.53391L393.722 11.4221L394.831 10.4661Z" fill="var(--fill-0, black)"/>
<path id="Vector_31" d="M406.225 11.1991L399.056 -0.00101224L397.803 0.801317L404.971 12.0014L406.225 11.1991Z" fill="var(--fill-0, black)"/>
<path id="Vector_32" d="M413.257 -0.727598V12.7276H414.77V-0.727598H413.257Z" fill="var(--fill-0, black)"/>
<path id="Vector_33" d="M423.905 12.5611L429.523 0.0691572L428.122 -0.561148L422.504 11.9308L423.905 12.5611Z" fill="var(--fill-0, black)"/>
<path id="Vector_34" d="M442.364 0.554105L432.568 10.3507L433.663 11.4459L443.46 1.64927L442.364 0.554105Z" fill="var(--fill-0, black)"/>
<path id="Vector_35" d="M42.1034 17.9933L41.9985 17.9114L41.924 18.0067L42.0289 18.0886L42.1034 17.9933Z" fill="var(--fill-0, black)"/>
<path id="Vector_36" d="M54.1596 17.9917L53.9114 17.8955L53.8677 18.0083L54.1159 18.1045L54.1596 17.9917Z" fill="var(--fill-0, black)"/>
<path id="Vector_37" d="M66.2668 18.0334L65.8043 17.8542L65.7605 17.967L66.2231 18.1462L66.2668 18.0334Z" fill="var(--fill-0, black)"/>
<path id="Vector_38" d="M78.419 18.0924L77.6517 17.7951L77.608 17.908L78.3753 18.2052L78.419 18.0924Z" fill="var(--fill-0, black)"/>
<path id="Vector_39" d="M90.6019 18.1565L89.4736 17.7194L89.4255 17.8435L90.5538 18.2806L90.6019 18.1565Z" fill="var(--fill-0, black)"/>
<path id="Vector_40" d="M102.802 18.2085L101.291 17.6227L101.225 17.7919L102.737 18.3777L102.802 18.2085Z" fill="var(--fill-0, black)"/>
<path id="Vector_41" d="M115.037 18.2732L113.074 17.5125L112.991 17.7268L114.954 18.4875L115.037 18.2732Z" fill="var(--fill-0, black)"/>
<path id="Vector_42" d="M127.296 18.3411L124.836 17.3881L124.731 17.6589L127.191 18.6119L127.296 18.3411Z" fill="var(--fill-0, black)"/>
<path id="Vector_43" d="M139.549 18.4067L136.605 17.2657L136.478 17.5929L139.423 18.7339L139.549 18.4067Z" fill="var(--fill-0, black)"/>
<path id="Vector_44" d="M151.814 18.4772L148.362 17.1394L148.213 17.5231L151.666 18.8608L151.814 18.4772Z" fill="var(--fill-0, black)"/>
<path id="Vector_45" d="M164.126 18.5591L160.076 16.9896L159.901 17.4409L163.951 19.0104L164.126 18.5591Z" fill="var(--fill-0, black)"/>
<path id="Vector_46" d="M176.422 18.6345L171.807 16.8465L171.606 17.3655L176.22 19.1535L176.422 18.6345Z" fill="var(--fill-0, black)"/>
<path id="Vector_47" d="M188.762 18.7274L183.493 16.6859L183.265 17.2726L188.534 19.3141L188.762 18.7274Z" fill="var(--fill-0, black)"/>
<path id="Vector_48" d="M201.121 18.8213L195.164 16.513L194.906 17.1787L200.863 19.487L201.121 18.8213Z" fill="var(--fill-0, black)"/>
<path id="Vector_49" d="M213.486 18.9173L206.83 16.338L206.541 17.0827L213.198 19.662L213.486 18.9173Z" fill="var(--fill-0, black)"/>
<path id="Vector_50" d="M225.84 19.009L218.506 16.1674L218.187 16.991L225.521 19.8326L225.84 19.009Z" fill="var(--fill-0, black)"/>
<path id="Vector_51" d="M238.233 19.116L230.144 15.9814L229.794 16.884L237.884 20.0186L238.233 19.116Z" fill="var(--fill-0, black)"/>
<path id="Vector_52" d="M250.476 19.1774L241.923 15.8636L241.552 16.8226L250.104 20.1364L250.476 19.1774Z" fill="var(--fill-0, black)"/>
<path id="Vector_53" d="M262.612 19.2107L253.8 15.7964L253.415 16.7893L262.227 20.2036L262.612 19.2107Z" fill="var(--fill-0, black)"/>
<path id="Vector_54" d="M274.682 19.2313L265.735 15.7645L265.346 16.7687L274.293 20.2355L274.682 19.2313Z" fill="var(--fill-0, black)"/>
<path id="Vector_55" d="M286.818 19.2647L277.611 15.6973L277.209 16.7353L286.416 20.3027L286.818 19.2647Z" fill="var(--fill-0, black)"/>
<path id="Vector_56" d="M298.888 19.2856L289.546 15.6652L289.139 16.7144L298.481 20.3348L298.888 19.2856Z" fill="var(--fill-0, black)"/>
<path id="Vector_57" d="M311.028 19.327L301.42 15.5904L300.999 16.673L310.607 20.4096L311.028 19.327Z" fill="var(--fill-0, black)"/>
<path id="Vector_58" d="M323.098 19.3477L313.355 15.5584L312.929 16.6523L322.673 20.4416L323.098 19.3477Z" fill="var(--fill-0, black)"/>
<path id="Vector_59" d="M335.246 19.3856L325.22 15.4867L324.782 16.6144L334.807 20.5133L335.246 19.3856Z" fill="var(--fill-0, black)"/>
<path id="Vector_60" d="M347.495 18.1956L336.711 16.5956L336.532 17.8044L347.316 19.4044L347.495 18.1956Z" fill="var(--fill-0, black)"/>
<path id="Vector_61" d="M359.429 19.4286L349.048 15.4092L348.598 16.5714L358.979 20.5908L359.429 19.4286Z" fill="var(--fill-0, black)"/>
<path id="Vector_62" d="M371.683 18.6839L360.636 16.0795L360.344 17.3161L371.391 19.9205L371.683 18.6839Z" fill="var(--fill-0, black)"/>
<path id="Vector_63" d="M383.727 19.1421L372.694 15.6244L372.301 16.8579L383.333 20.3756L383.727 19.1421Z" fill="var(--fill-0, black)"/>
<path id="Vector_64" d="M395.073 21.1157L385.767 13.845L384.955 14.8843L394.261 22.155L395.073 21.1157Z" fill="var(--fill-0, black)"/>
<path id="Vector_65" d="M406.455 22.1196L398.599 12.9961L397.572 13.8804L405.428 23.0039L406.455 22.1196Z" fill="var(--fill-0, black)"/>
<path id="Vector_66" d="M413.324 11.8653V24.1347H414.703V11.8653H413.324Z" fill="var(--fill-0, black)"/>
<path id="Vector_67" d="M429.937 13.0846L421.098 21.9229L422.091 22.9154L430.929 14.0771L429.937 13.0846Z" fill="var(--fill-0, black)"/>
<path id="Vector_68" d="M433.042 22.0471L443.758 15.1542L442.985 13.9534L432.269 20.8463L433.042 22.0471Z" fill="var(--fill-0, black)"/>
<path id="Vector_69" d="M42.0802 29.9395H41.9471V30.0605H42.0802V29.9395Z" fill="var(--fill-0, black)"/>
<path id="Vector_70" d="M54.1347 29.9395H53.8927V30.0605H54.1347V29.9395Z" fill="var(--fill-0, black)"/>
<path id="Vector_71" d="M66.2436 29.9395H65.7838V30.0605H66.2436V29.9395Z" fill="var(--fill-0, black)"/>
<path id="Vector_72" d="M78.3706 29.9395H77.6567V30.0605H78.3706V29.9395Z" fill="var(--fill-0, black)"/>
<path id="Vector_73" d="M90.5217 29.9397H89.5053V30.0607H90.5217V29.9397Z" fill="var(--fill-0, black)"/>
<path id="Vector_74" d="M102.709 29.9214H101.318V30.0786H102.709V29.9214Z" fill="var(--fill-0, black)"/>
<path id="Vector_75" d="M114.879 29.9032H113.149V30.0968H114.879V29.9032Z" fill="var(--fill-0, black)"/>
<path id="Vector_76" d="M127.109 29.879H124.919V30.121H127.109V29.879Z" fill="var(--fill-0, black)"/>
<path id="Vector_77" d="M139.333 29.8548H136.695V30.1452H139.333V29.8548Z" fill="var(--fill-0, black)"/>
<path id="Vector_78" d="M151.562 29.8246H148.465V30.1754H151.562V29.8246Z" fill="var(--fill-0, black)"/>
<path id="Vector_79" d="M163.841 29.7941H160.187V30.2055H163.841V29.7941Z" fill="var(--fill-0, black)"/>
<path id="Vector_80" d="M176.101 29.7641H171.926V30.236H176.101V29.7641Z" fill="var(--fill-0, black)"/>
<path id="Vector_81" d="M188.403 29.7338H183.624V30.2662H188.403V29.7338Z" fill="var(--fill-0, black)"/>
<path id="Vector_82" d="M200.694 29.6975H195.334V30.3025H200.694V29.6975Z" fill="var(--fill-0, black)"/>
<path id="Vector_83" d="M212.99 29.6672H207.037V30.3328H212.99V29.6672Z" fill="var(--fill-0, black)"/>
<path id="Vector_84" d="M225.299 29.631H218.729V30.369H225.299V29.631Z" fill="var(--fill-0, black)"/>
<path id="Vector_85" d="M237.65 29.5947H230.378V30.4054H237.65V29.5947Z" fill="var(--fill-0, black)"/>
<path id="Vector_86" d="M249.88 29.5644H242.148V30.4356H249.88V29.5644Z" fill="var(--fill-0, black)"/>
<path id="Vector_87" d="M262.013 29.5523H254.015V30.4477H262.013V29.5523Z" fill="var(--fill-0, black)"/>
<path id="Vector_88" d="M274.116 29.5402H265.912V30.4598H274.116V29.5402Z" fill="var(--fill-0, black)"/>
<path id="Vector_89" d="M286.249 29.5221H277.779V30.4779H286.249V29.5221Z" fill="var(--fill-0, black)"/>
<path id="Vector_90" d="M298.352 29.516H289.676V30.484H298.352V29.516Z" fill="var(--fill-0, black)"/>
<path id="Vector_91" d="M310.454 29.5039H301.573V30.4961H310.454V29.5039Z" fill="var(--fill-0, black)"/>
<path id="Vector_92" d="M322.563 29.4918H313.464V30.5082H322.563V29.4918Z" fill="var(--fill-0, black)"/>
<path id="Vector_93" d="M334.702 29.4736H325.325V30.5264H334.702V29.4736Z" fill="var(--fill-0, black)"/>
<path id="Vector_94" d="M346.811 29.4615H337.216V30.5385H346.811V29.4615Z" fill="var(--fill-0, black)"/>
<path id="Vector_95" d="M358.95 29.4434H349.077V30.5566H358.95V29.4434Z" fill="var(--fill-0, black)"/>
<path id="Vector_96" d="M371.059 29.4313H360.968V30.5687H371.059V29.4313Z" fill="var(--fill-0, black)"/>
<path id="Vector_97" d="M383.168 29.4192H372.859V30.5808H383.168V29.4192Z" fill="var(--fill-0, black)"/>
<path id="Vector_98" d="M395.319 29.4069H384.708V30.5927H395.319V29.4069Z" fill="var(--fill-0, black)"/>
<path id="Vector_99" d="M407.428 29.3949H396.599V30.6049H407.428V29.3949Z" fill="var(--fill-0, black)"/>
<path id="Vector_100" d="M418.014 26H410.014V34H418.014V26Z" fill="var(--fill-0, black)"/>
<path id="Vector_101" d="M431.689 29.3647H420.339V30.6353H431.689V29.3647Z" fill="var(--fill-0, black)"/>
<path id="Vector_102" d="M443.804 29.3526H432.224V30.6474H443.804V29.3526Z" fill="var(--fill-0, black)"/>
<path id="Vector_103" d="M42.0745 41.9338L41.942 41.9457L41.9528 42.0662L42.0854 42.0543L42.0745 41.9338Z" fill="var(--fill-0, black)"/>
<path id="Vector_104" d="M54.1167 41.93L53.8998 41.9495L53.9106 42.07L54.1276 42.0505L54.1167 41.93Z" fill="var(--fill-0, black)"/>
<path id="Vector_105" d="M66.2011 41.9222L65.8155 41.957L65.8264 42.0775L66.212 42.0428L66.2011 41.9222Z" fill="var(--fill-0, black)"/>
<path id="Vector_106" d="M78.3095 41.9126L77.707 41.9669L77.7178 42.0874L78.3204 42.0331L78.3095 41.9126Z" fill="var(--fill-0, black)"/>
<path id="Vector_107" d="M90.4361 41.9012L89.5804 41.9783L89.5913 42.0988L90.4469 42.0217L90.4361 41.9012Z" fill="var(--fill-0, black)"/>
<path id="Vector_108" d="M102.563 41.8898L101.454 41.9897L101.465 42.1102L102.573 42.0103L102.563 41.8898Z" fill="var(--fill-0, black)"/>
<path id="Vector_109" d="M114.718 41.8576L113.296 41.9857L113.31 42.1424L114.732 42.0143L114.718 41.8576Z" fill="var(--fill-0, black)"/>
<path id="Vector_110" d="M126.891 41.8238L125.119 41.9834L125.137 42.1762L126.908 42.0166L126.891 41.8238Z" fill="var(--fill-0, black)"/>
<path id="Vector_111" d="M139.069 41.7834L136.936 41.9756L136.958 42.2166L139.091 42.0244L139.069 41.7834Z" fill="var(--fill-0, black)"/>
<path id="Vector_112" d="M151.266 41.7413L148.735 41.9694L148.761 42.2587L151.292 42.0306L151.266 41.7413Z" fill="var(--fill-0, black)"/>
<path id="Vector_113" d="M163.475 41.7043L160.523 41.9704L160.552 42.2957L163.505 42.0296L163.475 41.7043Z" fill="var(--fill-0, black)"/>
<path id="Vector_114" d="M175.689 41.6546L172.303 41.9598L172.338 42.3454L175.724 42.0402L175.689 41.6546Z" fill="var(--fill-0, black)"/>
<path id="Vector_115" d="M187.916 41.6098L184.072 41.9563L184.111 42.3902L187.955 42.0437L187.916 41.6098Z" fill="var(--fill-0, black)"/>
<path id="Vector_116" d="M200.179 41.5558L195.804 41.9501L195.849 42.4442L200.223 42.0499L200.179 41.5558Z" fill="var(--fill-0, black)"/>
<path id="Vector_117" d="M212.399 41.5116L207.579 41.9461L207.628 42.4884L212.448 42.0539L212.399 41.5116Z" fill="var(--fill-0, black)"/>
<path id="Vector_118" d="M224.656 41.4579L219.317 41.9391L219.371 42.5416L224.71 42.0605L224.656 41.4579Z" fill="var(--fill-0, black)"/>
<path id="Vector_119" d="M236.949 41.4015L231.019 41.9359L231.079 42.5987L237.008 42.0643L236.949 41.4015Z" fill="var(--fill-0, black)"/>
<path id="Vector_120" d="M249.127 41.361L242.836 41.928L242.9 42.639L249.191 42.072L249.127 41.361Z" fill="var(--fill-0, black)"/>
<path id="Vector_121" d="M261.253 41.3374L254.709 41.9272L254.775 42.6623L261.319 42.0726L261.253 41.3374Z" fill="var(--fill-0, black)"/>
<path id="Vector_122" d="M273.378 41.3141L266.581 41.9267L266.649 42.6859L273.446 42.0733L273.378 41.3141Z" fill="var(--fill-0, black)"/>
<path id="Vector_123" d="M285.473 41.2934L278.484 41.9233L278.554 42.7066L285.544 42.0767L285.473 41.2934Z" fill="var(--fill-0, black)"/>
<path id="Vector_124" d="M297.628 41.2612L290.325 41.9194L290.399 42.7388L297.702 42.0806L297.628 41.2612Z" fill="var(--fill-0, black)"/>
<path id="Vector_125" d="M309.76 41.2374L302.192 41.919L302.268 42.7626L309.836 42.081L309.76 41.2374Z" fill="var(--fill-0, black)"/>
<path id="Vector_126" d="M321.915 41.3356L314.062 41.7826L314.113 42.6644L321.965 42.2174L321.915 41.3356Z" fill="var(--fill-0, black)"/>
<path id="Vector_127" d="M333.82 40.5846L325.988 42.5351L326.208 43.4157L334.039 41.4652L333.82 40.5846Z" fill="var(--fill-0, black)"/>
<path id="Vector_128" d="M345.911 40.4491L337.87 42.652L338.116 43.5506L346.157 41.3477L345.911 40.4491Z" fill="var(--fill-0, black)"/>
<path id="Vector_129" d="M358.029 40.3667L349.736 42.7015L349.998 43.6333L358.291 41.2985L358.029 40.3667Z" fill="var(--fill-0, black)"/>
<path id="Vector_130" d="M370.237 40.5397L361.573 42.4923L361.791 43.4603L370.455 41.5077L370.237 40.5397Z" fill="var(--fill-0, black)"/>
<path id="Vector_131" d="M382.107 39.9501L373.569 43.0962L373.92 44.0499L382.458 40.9038L382.107 39.9501Z" fill="var(--fill-0, black)"/>
<path id="Vector_132" d="M386.029 44.5943L394.476 40.3575L393.999 39.4057L385.551 43.6425L386.029 44.5943Z" fill="var(--fill-0, black)"/>
<path id="Vector_133" d="M405.047 38.1969L398.211 45.0331L398.981 45.8031L405.817 38.9669L405.047 38.1969Z" fill="var(--fill-0, black)"/>
<path id="Vector_134" d="M413.457 37.0269V46.9731H414.57V37.0269H413.457Z" fill="var(--fill-0, black)"/>
<path id="Vector_135" d="M429.824 45.4652L423.067 37.776L422.203 38.5348L428.961 46.224L429.824 45.4652Z" fill="var(--fill-0, black)"/>
<path id="Vector_136" d="M442.526 44.7733L434.231 38.2922L433.501 39.2267L441.796 45.7078L442.526 44.7733Z" fill="var(--fill-0, black)"/>
<path id="Vector_137" d="M42.1034 53.9933L41.9985 53.9114L41.924 54.0067L42.0289 54.0886L42.1034 53.9933Z" fill="var(--fill-0, black)"/>
<path id="Vector_138" d="M54.132 54.0156L53.9699 53.889L53.8954 53.9844L54.0575 54.111L54.132 54.0156Z" fill="var(--fill-0, black)"/>
<path id="Vector_139" d="M65.8764 54.1072L66.1877 54.0081L66.1509 53.8928L65.8397 53.9919L65.8764 54.1072Z" fill="var(--fill-0, black)"/>
<path id="Vector_140" d="M77.7957 54.1331L78.2684 53.9825L78.2317 53.8673L77.759 54.0178L77.7957 54.1331Z" fill="var(--fill-0, black)"/>
<path id="Vector_141" d="M89.7092 54.1605L90.3548 53.9548L90.3181 53.8395L89.6725 54.0452L89.7092 54.1605Z" fill="var(--fill-0, black)"/>
<path id="Vector_142" d="M101.594 54.1972L102.47 53.9181L102.433 53.8028L101.557 54.0819L101.594 54.1972Z" fill="var(--fill-0, black)"/>
<path id="Vector_143" d="M113.486 54.2379L114.581 53.889L114.541 53.7622L113.446 54.1111L113.486 54.2379Z" fill="var(--fill-0, black)"/>
<path id="Vector_144" d="M125.357 54.2916L126.718 53.8582L126.67 53.7084L125.31 54.1417L125.357 54.2916Z" fill="var(--fill-0, black)"/>
<path id="Vector_145" d="M137.219 54.3548L138.867 53.8296L138.809 53.6452L137.16 54.1704L137.219 54.3548Z" fill="var(--fill-0, black)"/>
<path id="Vector_146" d="M149.069 54.4217L151.029 53.7973L150.959 53.5783L148.999 54.2027L149.069 54.4217Z" fill="var(--fill-0, black)"/>
<path id="Vector_147" d="M160.93 54.4851L163.178 53.7689L163.097 53.5152L160.849 54.2314L160.93 54.4851Z" fill="var(--fill-0, black)"/>
<path id="Vector_148" d="M172.763 54.5573L175.357 53.7309L175.265 53.4427L172.671 54.2691L172.763 54.5573Z" fill="var(--fill-0, black)"/>
<path id="Vector_149" d="M184.612 54.6242L187.518 53.6986L187.415 53.3758L184.51 54.3014L184.612 54.6242Z" fill="var(--fill-0, black)"/>
<path id="Vector_150" d="M196.43 54.7078L199.715 53.6611L199.598 53.2922L196.312 54.3389L196.43 54.7078Z" fill="var(--fill-0, black)"/>
<path id="Vector_151" d="M208.241 54.7933L211.919 53.6217L211.786 53.2067L208.109 54.3783L208.241 54.7933Z" fill="var(--fill-0, black)"/>
<path id="Vector_152" d="M220.046 54.8807L224.128 53.5805L223.981 53.1193L219.9 54.4195L220.046 54.8807Z" fill="var(--fill-0, black)"/>
<path id="Vector_153" d="M231.868 54.9567L236.318 53.539L236.16 53.0433L231.71 54.461L231.868 54.9567Z" fill="var(--fill-0, black)"/>
<path id="Vector_154" d="M243.685 55.0404L248.515 53.5015L248.343 52.9596L243.512 54.4985L243.685 55.0404Z" fill="var(--fill-0, black)"/>
<path id="Vector_155" d="M255.579 55.0868L260.629 53.4781L260.449 52.9132L255.399 54.5219L255.579 55.0868Z" fill="var(--fill-0, black)"/>
<path id="Vector_156" d="M267.473 55.1332L272.742 53.4548L272.554 52.8668L267.286 54.5452L267.473 55.1332Z" fill="var(--fill-0, black)"/>
<path id="Vector_157" d="M279.363 55.1872L284.863 53.4353L284.664 52.8128L279.165 54.5647L279.363 55.1872Z" fill="var(--fill-0, black)"/>
<path id="Vector_158" d="M291.223 55.2447L297.01 53.401L296.805 52.7553L291.017 54.5991L291.223 55.2447Z" fill="var(--fill-0, black)"/>
<path id="Vector_159" d="M303.113 55.2987L309.131 53.3815L308.914 52.7013L302.896 54.6185L303.113 55.2987Z" fill="var(--fill-0, black)"/>
<path id="Vector_160" d="M314.967 55.358L321.285 53.3453L321.061 52.642L314.743 54.6547L314.967 55.358Z" fill="var(--fill-0, black)"/>
<path id="Vector_161" d="M326.851 55.4141L333.411 53.3238L333.176 52.5859L326.616 54.6762L326.851 55.4141Z" fill="var(--fill-0, black)"/>
<path id="Vector_162" d="M338.721 55.4348L345.542 53.3282L345.306 52.5652L338.485 54.6718L338.721 55.4348Z" fill="var(--fill-0, black)"/>
<path id="Vector_163" d="M351.109 56.3333L357.365 52.3721L356.919 51.6667L350.662 55.6279L351.109 56.3333Z" fill="var(--fill-0, black)"/>
<path id="Vector_164" d="M362.844 56.2026L369.592 52.5531L369.183 51.7975L362.435 55.4469L362.844 56.2026Z" fill="var(--fill-0, black)"/>
<path id="Vector_165" d="M375.258 56.9322L381.35 51.7498L380.77 51.0678L374.678 56.2502L375.258 56.9322Z" fill="var(--fill-0, black)"/>
<path id="Vector_166" d="M392.606 50.7487L386.762 56.5925L387.421 57.2513L393.265 51.4075L392.606 50.7487Z" fill="var(--fill-0, black)"/>
<path id="Vector_167" d="M400.688 58.127L404.222 50.2701L403.339 49.873L399.805 57.7299L400.688 58.127Z" fill="var(--fill-0, black)"/>
<path id="Vector_168" d="M413.518 49.5593V58.4407H414.51V49.5593H413.518Z" fill="var(--fill-0, black)"/>
<path id="Vector_169" d="M429.063 57.4637L423.807 49.947L422.964 50.5363L428.22 58.053L429.063 57.4637Z" fill="var(--fill-0, black)"/>
<path id="Vector_170" d="M441.606 57.1703L435.211 50.1146L434.422 50.8297L440.817 57.8854L441.606 57.1703Z" fill="var(--fill-0, black)"/>
<path id="Vector_171" d="M42.1034 65.9933L41.9985 65.9113L41.924 66.0067L42.0289 66.0886L42.1034 65.9933Z" fill="var(--fill-0, black)"/>
<path id="Vector_172" d="M54.1272 66.0119L53.9746 65.8927L53.9001 65.9881L54.0527 66.1073L54.1272 66.0119Z" fill="var(--fill-0, black)"/>
<path id="Vector_173" d="M66.1558 66.0343L65.946 65.8704L65.8715 65.9657L66.0813 66.1296L66.1558 66.0343Z" fill="var(--fill-0, black)"/>
<path id="Vector_174" d="M78.213 66.079L77.8888 65.8257L77.8143 65.921L78.1385 66.1743L78.213 66.079Z" fill="var(--fill-0, black)"/>
<path id="Vector_175" d="M90.2702 66.1237L89.8316 65.781L89.7571 65.8763L90.1957 66.219L90.2702 66.1237Z" fill="var(--fill-0, black)"/>
<path id="Vector_176" d="M102.332 66.1721L101.77 65.7326L101.695 65.8279L102.258 66.2674L102.332 66.1721Z" fill="var(--fill-0, black)"/>
<path id="Vector_177" d="M114.352 65.7093L113.61 66.1891L113.676 66.2907L114.417 65.8109L114.352 65.7093Z" fill="var(--fill-0, black)"/>
<path id="Vector_178" d="M126.448 65.6469L125.513 66.2515L125.579 66.3531L126.514 65.7485L126.448 65.6469Z" fill="var(--fill-0, black)"/>
<path id="Vector_179" d="M138.528 65.5809L137.421 66.2972L137.499 66.4191L138.607 65.7028L138.528 65.5809Z" fill="var(--fill-0, black)"/>
<path id="Vector_180" d="M150.63 65.4933L149.299 66.3543L149.398 66.5067L150.728 65.6457L150.63 65.4933Z" fill="var(--fill-0, black)"/>
<path id="Vector_181" d="M162.72 65.4207L161.196 66.4066L161.308 66.5793L162.831 65.5935L162.72 65.4207Z" fill="var(--fill-0, black)"/>
<path id="Vector_182" d="M174.815 65.3449L173.088 66.4621L173.213 66.6551L174.94 65.5379L174.815 65.3449Z" fill="var(--fill-0, black)"/>
<path id="Vector_183" d="M186.92 65.2624L184.969 66.5242L185.107 66.7376L187.058 65.4757L186.92 65.2624Z" fill="var(--fill-0, black)"/>
<path id="Vector_184" d="M199.042 65.1617L196.827 66.5944L196.985 66.8383L199.2 65.4056L199.042 65.1617Z" fill="var(--fill-0, black)"/>
<path id="Vector_185" d="M211.149 65.0709L208.701 66.6548L208.878 66.9291L211.327 65.3452L211.149 65.0709Z" fill="var(--fill-0, black)"/>
<path id="Vector_186" d="M223.282 64.9637L220.549 66.7316L220.746 67.0363L223.479 65.2684L223.282 64.9637Z" fill="var(--fill-0, black)"/>
<path id="Vector_187" d="M235.394 64.8696L232.417 66.7952L232.634 67.1305L235.61 65.2048L235.394 64.8696Z" fill="var(--fill-0, black)"/>
<path id="Vector_188" d="M247.516 64.7689L244.275 66.8654L244.512 67.2311L247.752 65.1346L247.516 64.7689Z" fill="var(--fill-0, black)"/>
<path id="Vector_189" d="M259.621 64.6864L256.157 66.9275L256.406 67.3136L259.871 65.0725L259.621 64.6864Z" fill="var(--fill-0, black)"/>
<path id="Vector_190" d="M271.723 64.5989L268.035 66.9846L268.304 67.4011L271.992 65.0154L271.723 64.5989Z" fill="var(--fill-0, black)"/>
<path id="Vector_191" d="M283.808 64.5296L279.937 67.0336L280.22 67.4704L284.09 64.9664L283.808 64.5296Z" fill="var(--fill-0, black)"/>
<path id="Vector_192" d="M295.923 64.4406L291.808 67.1023L292.104 67.5594L296.219 64.8977L295.923 64.4406Z" fill="var(--fill-0, black)"/>
<path id="Vector_193" d="M308.01 64.3629L303.702 67.1495L304.018 67.6371L308.325 64.8505L308.01 64.3629Z" fill="var(--fill-0, black)"/>
<path id="Vector_194" d="M320.142 64.2556L315.55 67.2262L315.885 67.7444L320.477 64.7738L320.142 64.2556Z" fill="var(--fill-0, black)"/>
<path id="Vector_195" d="M332.237 64.1798L327.442 67.2818L327.79 67.8202L332.585 64.7182L332.237 64.1798Z" fill="var(--fill-0, black)"/>
<path id="Vector_196" d="M344.354 64.0824L339.305 67.3487L339.673 67.9176L344.722 64.6513L344.354 64.0824Z" fill="var(--fill-0, black)"/>
<path id="Vector_197" d="M351.802 68.2825L356.679 64.2687L356.225 63.7175L351.348 67.7313L351.802 68.2825Z" fill="var(--fill-0, black)"/>
<path id="Vector_198" d="M363.751 68.4097L368.755 64.1522L368.277 63.5901L363.273 67.8475L363.751 68.4097Z" fill="var(--fill-0, black)"/>
<path id="Vector_199" d="M380.174 63.292L375.306 68.1604L375.853 68.708L380.722 63.8396L380.174 63.292Z" fill="var(--fill-0, black)"/>
<path id="Vector_200" d="M388.301 69.1987L392.394 63.2615L391.727 62.8013L387.633 68.7385L388.301 69.1987Z" fill="var(--fill-0, black)"/>
<path id="Vector_201" d="M401.82 69.7879L403.043 62.3496L402.208 62.2121L400.984 69.6504L401.82 69.7879Z" fill="var(--fill-0, black)"/>
<path id="Vector_202" d="M413.572 62.0675V69.9325H414.455V62.0675H413.572Z" fill="var(--fill-0, black)"/>
<path id="Vector_203" d="M428.575 69.1895L424.218 62.3242L423.452 62.8105L427.809 69.6758L428.575 69.1895Z" fill="var(--fill-0, black)"/>
<path id="Vector_204" d="M441.083 68.9568L435.68 62.4335L434.944 63.0432L440.347 69.5665L441.083 68.9568Z" fill="var(--fill-0, black)"/>
<path id="Vector_205" d="M42.1034 77.9933L41.9985 77.9113L41.924 78.0067L42.0289 78.0886L42.1034 77.9933Z" fill="var(--fill-0, black)"/>
<path id="Vector_206" d="M54.1224 78.0082L53.9794 77.8965L53.9049 77.9918L54.0479 78.1036L54.1224 78.0082Z" fill="var(--fill-0, black)"/>
<path id="Vector_207" d="M66.1463 78.0268L65.9556 77.8778L65.8811 77.9732L66.0718 78.1222L66.1463 78.0268Z" fill="var(--fill-0, black)"/>
<path id="Vector_208" d="M78.1892 78.0603L77.9127 77.8443L77.8382 77.9397L78.1147 78.1557L78.1892 78.0603Z" fill="var(--fill-0, black)"/>
<path id="Vector_209" d="M90.2321 78.0939L89.8698 77.8108L89.7953 77.9061L90.1576 78.1892L90.2321 78.0939Z" fill="var(--fill-0, black)"/>
<path id="Vector_210" d="M102.28 78.1311L101.822 77.7735L101.748 77.8689L102.205 78.2265L102.28 78.1311Z" fill="var(--fill-0, black)"/>
<path id="Vector_211" d="M113.75 78.2482L114.344 77.8526L114.277 77.7518L113.683 78.1474L113.75 78.2482Z" fill="var(--fill-0, black)"/>
<path id="Vector_212" d="M125.68 78.2951L126.415 77.8056L126.348 77.7049L125.613 78.1944L125.68 78.2951Z" fill="var(--fill-0, black)"/>
<path id="Vector_213" d="M137.609 78.342L138.485 77.7587L138.418 77.658L137.542 78.2413L137.609 78.342Z" fill="var(--fill-0, black)"/>
<path id="Vector_214" d="M149.547 78.3907L150.554 77.7201L150.48 77.6093L149.473 78.2799L149.547 78.3907Z" fill="var(--fill-0, black)"/>
<path id="Vector_215" d="M161.478 78.451L162.636 77.6799L162.549 77.549L161.391 78.3201L161.478 78.451Z" fill="var(--fill-0, black)"/>
<path id="Vector_216" d="M173.389 78.5248L174.739 77.6263L174.638 77.4752L173.289 78.3737L173.389 78.5248Z" fill="var(--fill-0, black)"/>
<path id="Vector_217" d="M185.315 78.5885L186.826 77.5827L186.712 77.4115L185.201 78.4173L185.315 78.5885Z" fill="var(--fill-0, black)"/>
<path id="Vector_218" d="M197.221 78.6656L198.934 77.5257L198.806 77.3344L197.094 78.4743L197.221 78.6656Z" fill="var(--fill-0, black)"/>
<path id="Vector_219" d="M209.157 78.7226L211.011 77.4889L210.87 77.2774L209.017 78.5111L209.157 78.7226Z" fill="var(--fill-0, black)"/>
<path id="Vector_220" d="M221.053 78.8065L223.128 77.4252L222.974 77.1935L220.899 78.5748L221.053 78.8065Z" fill="var(--fill-0, black)"/>
<path id="Vector_221" d="M232.964 78.8802L235.231 77.3716L235.063 77.1198L232.797 78.6284L232.964 78.8802Z" fill="var(--fill-0, black)"/>
<path id="Vector_222" d="M244.854 78.9758L247.362 77.3062L247.174 77.0242L244.666 78.6938L244.854 78.9758Z" fill="var(--fill-0, black)"/>
<path id="Vector_223" d="M256.76 79.0529L259.469 77.2492L259.268 76.9471L256.558 78.7508L256.76 79.0529Z" fill="var(--fill-0, black)"/>
<path id="Vector_224" d="M268.686 79.1166L271.556 77.2057L271.342 76.8834L268.471 78.7943L268.686 79.1166Z" fill="var(--fill-0, black)"/>
<path id="Vector_225" d="M280.587 79.1971L283.669 77.1453L283.441 76.8029L280.359 78.8547L280.587 79.1971Z" fill="var(--fill-0, black)"/>
<path id="Vector_226" d="M292.486 79.286L295.79 77.0867L295.542 76.714L292.238 78.9133L292.486 79.286Z" fill="var(--fill-0, black)"/>
<path id="Vector_227" d="M304.407 79.353L307.882 77.0398L307.62 76.647L304.145 78.9602L304.407 79.353Z" fill="var(--fill-0, black)"/>
<path id="Vector_228" d="M316.281 79.4587L320.028 76.9644L319.746 76.5413L315.999 79.0356L316.281 79.4587Z" fill="var(--fill-0, black)"/>
<path id="Vector_229" d="M328.172 79.5459L332.15 76.8973L331.855 76.4541L327.877 79.1027L328.172 79.5459Z" fill="var(--fill-0, black)"/>
<path id="Vector_230" d="M340.257 79.8066L344.124 76.6232L343.771 76.1934L339.903 79.3768L340.257 79.8066Z" fill="var(--fill-0, black)"/>
<path id="Vector_231" d="M352.187 79.9429L356.224 76.5087L355.84 76.0571L351.803 79.4913L352.187 79.9429Z" fill="var(--fill-0, black)"/>
<path id="Vector_232" d="M367.768 75.801L363.815 79.7539L364.26 80.1988L368.213 76.2459L367.768 75.801Z" fill="var(--fill-0, black)"/>
<path id="Vector_233" d="M376.833 80.6863L379.76 75.6416L379.194 75.3137L376.268 80.3584L376.833 80.6863Z" fill="var(--fill-0, black)"/>
<path id="Vector_234" d="M389.07 80.9388L391.587 75.3441L390.958 75.0612L388.441 80.6559L389.07 80.9388Z" fill="var(--fill-0, black)"/>
<path id="Vector_235" d="M401.844 81.2707L402.9 74.8472L402.184 74.7293L401.127 81.1528L401.844 81.2707Z" fill="var(--fill-0, black)"/>
<path id="Vector_236" d="M413.633 74.618V81.3819H414.395V74.618H413.633Z" fill="var(--fill-0, black)"/>
<path id="Vector_237" d="M427.708 81.1327L425.06 74.5685L424.319 74.8673L426.968 81.4316L427.708 81.1327Z" fill="var(--fill-0, black)"/>
<path id="Vector_238" d="M441.156 79.933L435.378 75.4186L434.871 76.067L440.649 80.5814L441.156 79.933Z" fill="var(--fill-0, black)"/>
<path id="Vector_239" d="M42.1034 89.9933L41.9985 89.9113L41.924 90.0067L42.0289 90.0886L42.1034 89.9933Z" fill="var(--fill-0, black)"/>
<path id="Vector_240" d="M54.1177 90.0045L53.9842 89.9002L53.9097 89.9955L54.0432 90.0998L54.1177 90.0045Z" fill="var(--fill-0, black)"/>
<path id="Vector_241" d="M66.1367 90.0194L65.9651 89.8853L65.8906 89.9806L66.0622 90.1147L66.1367 90.0194Z" fill="var(--fill-0, black)"/>
<path id="Vector_242" d="M78.1701 90.0454L77.9317 89.8592L77.8572 89.9546L78.0956 90.1408L78.1701 90.0454Z" fill="var(--fill-0, black)"/>
<path id="Vector_243" d="M90.2035 90.0715L89.8984 89.8331L89.8239 89.9285L90.129 90.1669L90.2035 90.0715Z" fill="var(--fill-0, black)"/>
<path id="Vector_244" d="M102.246 90.105L101.855 89.7996L101.781 89.895L102.172 90.2004L102.246 90.105Z" fill="var(--fill-0, black)"/>
<path id="Vector_245" d="M114.234 89.7845L113.727 90.114L113.793 90.2155L114.3 89.886L114.234 89.7845Z" fill="var(--fill-0, black)"/>
<path id="Vector_246" d="M126.29 89.7483L125.671 90.1503L125.737 90.2517L126.356 89.8497L126.29 89.7483Z" fill="var(--fill-0, black)"/>
<path id="Vector_247" d="M138.351 89.7087L137.61 90.1898L137.676 90.2913L138.417 89.8102L138.351 89.7087Z" fill="var(--fill-0, black)"/>
<path id="Vector_248" d="M150.422 89.6626L149.539 90.2359L149.605 90.3374L150.488 89.7641L150.422 89.6626Z" fill="var(--fill-0, black)"/>
<path id="Vector_249" d="M162.475 89.6213L161.48 90.2671L161.553 90.3787L162.547 89.7329L162.475 89.6213Z" fill="var(--fill-0, black)"/>
<path id="Vector_250" d="M174.539 89.565L173.403 90.3031L173.488 90.435L174.625 89.6969L174.539 89.565Z" fill="var(--fill-0, black)"/>
<path id="Vector_251" d="M186.597 89.5204L185.338 90.3375L185.431 90.4796L186.689 89.6624L186.597 89.5204Z" fill="var(--fill-0, black)"/>
<path id="Vector_252" d="M198.671 89.4575L197.251 90.3801L197.356 90.5425L198.777 89.6199L198.671 89.4575Z" fill="var(--fill-0, black)"/>
<path id="Vector_253" d="M210.734 89.4096L209.181 90.4179L209.293 90.5904L210.846 89.5821L210.734 89.4096Z" fill="var(--fill-0, black)"/>
<path id="Vector_254" d="M222.814 89.3434L221.088 90.4638L221.214 90.6566L222.939 89.5362L222.814 89.3434Z" fill="var(--fill-0, black)"/>
<path id="Vector_255" d="M234.898 89.274L232.991 90.5129L233.129 90.726L235.037 89.4871L234.898 89.274Z" fill="var(--fill-0, black)"/>
<path id="Vector_256" d="M246.983 89.2045L244.893 90.5621L245.044 90.7955L247.135 89.4379L246.983 89.2045Z" fill="var(--fill-0, black)"/>
<path id="Vector_257" d="M259.053 89.1449L256.81 90.6014L256.975 90.8551L259.217 89.3986L259.053 89.1449Z" fill="var(--fill-0, black)"/>
<path id="Vector_258" d="M271.127 89.0821L268.722 90.6439L268.9 90.9179L271.305 89.3561L271.127 89.0821Z" fill="var(--fill-0, black)"/>
<path id="Vector_259" d="M283.2 89.0276L280.643 90.6883L280.827 90.9724L283.385 89.3117L283.2 89.0276Z" fill="var(--fill-0, black)"/>
<path id="Vector_260" d="M295.297 88.9432L292.526 90.7423L292.731 91.0568L295.501 89.2578L295.297 88.9432Z" fill="var(--fill-0, black)"/>
<path id="Vector_261" d="M307.375 88.8854L304.442 90.7899L304.653 91.1147L307.585 89.2101L307.375 88.8854Z" fill="var(--fill-0, black)"/>
<path id="Vector_262" d="M319.471 88.8009L316.325 90.8439L316.556 91.199L319.702 89.1561L319.471 88.8009Z" fill="var(--fill-0, black)"/>
<path id="Vector_263" d="M328.624 91.4339L331.688 88.9118L331.404 88.5661L328.339 91.0882L328.624 91.4339Z" fill="var(--fill-0, black)"/>
<path id="Vector_264" d="M340.577 91.5322L343.756 88.8272L343.451 88.4678L340.271 91.1728L340.577 91.5322Z" fill="var(--fill-0, black)"/>
<path id="Vector_265" d="M355.391 88.2717L352.285 91.3775L352.636 91.7283L355.742 88.6225L355.391 88.2717Z" fill="var(--fill-0, black)"/>
<path id="Vector_266" d="M364.946 92.093L367.516 88.1933L367.082 87.907L364.511 91.8067L364.946 92.093Z" fill="var(--fill-0, black)"/>
<path id="Vector_267" d="M378.994 87.7381L376.561 91.9915L377.033 92.2619L379.467 88.0085L378.994 87.7381Z" fill="var(--fill-0, black)"/>
<path id="Vector_268" d="M390.205 92.5745L390.403 87.4479L389.822 87.4255L389.625 92.5521L390.205 92.5745Z" fill="var(--fill-0, black)"/>
<path id="Vector_269" d="M401.872 92.7235L402.752 87.3747L402.155 87.2765L401.275 92.6253L401.872 92.7235Z" fill="var(--fill-0, black)"/>
<path id="Vector_270" d="M413.699 87.1747V92.8253H414.328V87.1747H413.699Z" fill="var(--fill-0, black)"/>
<path id="Vector_271" d="M427.607 92.5006L425.018 87.207L424.42 87.4994L427.009 92.793L427.607 92.5006Z" fill="var(--fill-0, black)"/>
<path id="Vector_272" d="M439.619 92.6365L437.034 87.0729L436.408 87.3635L438.993 92.9271L439.619 92.6365Z" fill="var(--fill-0, black)"/>
<path id="Vector_273" d="M42.1034 101.993L41.9985 101.911L41.924 102.007L42.0289 102.089L42.1034 101.993Z" fill="var(--fill-0, black)"/>
<path id="Vector_274" d="M54.1129 102.001L53.9889 101.904L53.9144 101.999L54.0384 102.096L54.1129 102.001Z" fill="var(--fill-0, black)"/>
<path id="Vector_275" d="M66.132 102.016L65.9699 101.889L65.8954 101.984L66.0575 102.111L66.132 102.016Z" fill="var(--fill-0, black)"/>
<path id="Vector_276" d="M78.1558 102.034L77.946 101.87L77.8715 101.966L78.0813 102.13L78.1558 102.034Z" fill="var(--fill-0, black)"/>
<path id="Vector_277" d="M90.1892 102.06L89.9127 101.844L89.8382 101.94L90.1147 102.156L90.1892 102.06Z" fill="var(--fill-0, black)"/>
<path id="Vector_278" d="M102.223 102.086L101.879 101.818L101.805 101.914L102.148 102.182L102.223 102.086Z" fill="var(--fill-0, black)"/>
<path id="Vector_279" d="M114.256 102.112L113.846 101.792L113.771 101.888L114.181 102.208L114.256 102.112Z" fill="var(--fill-0, black)"/>
<path id="Vector_280" d="M126.299 102.146L125.803 101.759L125.729 101.854L126.224 102.241L126.299 102.146Z" fill="var(--fill-0, black)"/>
<path id="Vector_281" d="M138.332 102.172L137.77 101.733L137.695 101.828L138.258 102.267L138.332 102.172Z" fill="var(--fill-0, black)"/>
<path id="Vector_282" d="M150.389 102.217L149.712 101.688L149.638 101.783L150.315 102.312L150.389 102.217Z" fill="var(--fill-0, black)"/>
<path id="Vector_283" d="M162.428 102.247L161.674 101.658L161.6 101.753L162.353 102.342L162.428 102.247Z" fill="var(--fill-0, black)"/>
<path id="Vector_284" d="M173.574 102.346L174.518 101.756L174.454 101.654L173.51 102.244L173.574 102.346Z" fill="var(--fill-0, black)"/>
<path id="Vector_285" d="M185.536 102.377L186.562 101.736L186.491 101.623L185.465 102.264L185.536 102.377Z" fill="var(--fill-0, black)"/>
<path id="Vector_286" d="M197.465 102.435L198.645 101.698L198.562 101.565L197.382 102.302L197.465 102.435Z" fill="var(--fill-0, black)"/>
<path id="Vector_287" d="M209.407 102.479L210.71 101.665L210.62 101.521L209.317 102.335L209.407 102.479Z" fill="var(--fill-0, black)"/>
<path id="Vector_288" d="M221.347 102.531L222.783 101.633L222.681 101.469L221.244 102.367L221.347 102.531Z" fill="var(--fill-0, black)"/>
<path id="Vector_289" d="M233.283 102.578L234.853 101.597L234.744 101.422L233.174 102.403L233.283 102.578Z" fill="var(--fill-0, black)"/>
<path id="Vector_290" d="M245.235 102.615L246.908 101.57L246.792 101.385L245.12 102.43L245.235 102.615Z" fill="var(--fill-0, black)"/>
<path id="Vector_291" d="M257.17 102.67L258.986 101.535L258.858 101.33L257.041 102.465L257.17 102.67Z" fill="var(--fill-0, black)"/>
<path id="Vector_292" d="M269.096 102.723L271.066 101.492L270.931 101.277L268.961 102.508L269.096 102.723Z" fill="var(--fill-0, black)"/>
<path id="Vector_293" d="M281.031 102.778L283.144 101.458L282.997 101.222L280.883 102.542L281.031 102.778Z" fill="var(--fill-0, black)"/>
<path id="Vector_294" d="M292.96 102.837L295.228 101.42L295.067 101.163L292.8 102.58L292.96 102.837Z" fill="var(--fill-0, black)"/>
<path id="Vector_295" d="M304.884 102.898L307.316 101.379L307.143 101.102L304.711 102.621L304.884 102.898Z" fill="var(--fill-0, black)"/>
<path id="Vector_296" d="M316.944 103.1L319.299 101.162L319.083 100.9L316.729 102.838L316.944 103.1Z" fill="var(--fill-0, black)"/>
<path id="Vector_297" d="M328.91 103.177L331.352 101.099L331.117 100.823L328.675 102.901L328.91 103.177Z" fill="var(--fill-0, black)"/>
<path id="Vector_298" d="M343.079 100.661L340.675 103.065L340.948 103.339L343.353 100.935L343.079 100.661Z" fill="var(--fill-0, black)"/>
<path id="Vector_299" d="M353.126 103.582L355.226 100.651L354.902 100.418L352.801 103.349L353.126 103.582Z" fill="var(--fill-0, black)"/>
<path id="Vector_300" d="M365.093 103.648L367.278 100.599L366.934 100.352L364.749 103.401L365.093 103.648Z" fill="var(--fill-0, black)"/>
<path id="Vector_301" d="M378.805 100.166L376.834 103.611L377.222 103.834L379.193 100.389L378.805 100.166Z" fill="var(--fill-0, black)"/>
<path id="Vector_302" d="M390.168 104.125L390.331 99.8932L389.86 99.875L389.696 104.107L390.168 104.125Z" fill="var(--fill-0, black)"/>
<path id="Vector_303" d="M401.902 104.207L402.615 99.8732L402.125 99.7927L401.412 104.127L401.902 104.207Z" fill="var(--fill-0, black)"/>
<path id="Vector_304" d="M413.754 99.6951V104.305H414.274V99.6951H413.754Z" fill="var(--fill-0, black)"/>
<path id="Vector_305" d="M427.321 104.054L425.195 99.7064L424.706 99.9456L426.832 104.294L427.321 104.054Z" fill="var(--fill-0, black)"/>
<path id="Vector_306" d="M439.321 104.154L437.211 99.6112L436.706 99.8458L438.817 104.389L439.321 104.154Z" fill="var(--fill-0, black)"/>
<path id="Vector_307" d="M42.1034 113.993L41.9985 113.911L41.924 114.007L42.0289 114.089L42.1034 113.993Z" fill="var(--fill-0, black)"/>
<path id="Vector_308" d="M54.1081 113.997L53.9937 113.908L53.9192 114.003L54.0336 114.092L54.1081 113.997Z" fill="var(--fill-0, black)"/>
<path id="Vector_309" d="M66.1272 114.012L65.9746 113.893L65.9001 113.988L66.0527 114.107L66.1272 114.012Z" fill="var(--fill-0, black)"/>
<path id="Vector_310" d="M78.1463 114.027L77.9556 113.878L77.8811 113.973L78.0718 114.122L78.1463 114.027Z" fill="var(--fill-0, black)"/>
<path id="Vector_311" d="M90.1653 114.042L89.9365 113.863L89.862 113.958L90.0908 114.137L90.1653 114.042Z" fill="var(--fill-0, black)"/>
<path id="Vector_312" d="M102.194 114.064L101.908 113.841L101.833 113.936L102.119 114.159L102.194 114.064Z" fill="var(--fill-0, black)"/>
<path id="Vector_313" d="M114.223 114.086L113.879 113.818L113.805 113.914L114.148 114.182L114.223 114.086Z" fill="var(--fill-0, black)"/>
<path id="Vector_314" d="M126.246 114.105L125.855 113.8L125.781 113.895L126.172 114.2L126.246 114.105Z" fill="var(--fill-0, black)"/>
<path id="Vector_315" d="M138.28 114.131L137.822 113.774L137.748 113.869L138.205 114.226L138.28 114.131Z" fill="var(--fill-0, black)"/>
<path id="Vector_316" d="M150.318 114.161L149.784 113.744L149.709 113.839L150.243 114.256L150.318 114.161Z" fill="var(--fill-0, black)"/>
<path id="Vector_317" d="M162.356 114.191L161.746 113.714L161.671 113.809L162.282 114.286L162.356 114.191Z" fill="var(--fill-0, black)"/>
<path id="Vector_318" d="M174.389 114.217L173.712 113.688L173.638 113.783L174.315 114.312L174.389 114.217Z" fill="var(--fill-0, black)"/>
<path id="Vector_319" d="M186.437 114.254L185.665 113.651L185.59 113.746L186.363 114.349L186.437 114.254Z" fill="var(--fill-0, black)"/>
<path id="Vector_320" d="M198.475 114.284L197.627 113.621L197.552 113.716L198.401 114.379L198.475 114.284Z" fill="var(--fill-0, black)"/>
<path id="Vector_321" d="M210.531 114.32L209.578 113.575L209.496 113.68L210.449 114.425L210.531 114.32Z" fill="var(--fill-0, black)"/>
<path id="Vector_322" d="M222.578 114.349L221.539 113.537L221.449 113.651L222.489 114.463L222.578 114.349Z" fill="var(--fill-0, black)"/>
<path id="Vector_323" d="M234.625 114.378L233.5 113.499L233.403 113.622L234.528 114.501L234.625 114.378Z" fill="var(--fill-0, black)"/>
<path id="Vector_324" d="M246.671 114.406L245.46 113.46L245.356 113.594L246.567 114.54L246.671 114.406Z" fill="var(--fill-0, black)"/>
<path id="Vector_325" d="M258.723 114.439L257.416 113.418L257.305 113.561L258.611 114.582L258.723 114.439Z" fill="var(--fill-0, black)"/>
<path id="Vector_326" d="M270.792 114.478L269.362 113.36L269.235 113.522L270.665 114.64L270.792 114.478Z" fill="var(--fill-0, black)"/>
<path id="Vector_327" d="M282.858 114.521L281.304 113.307L281.17 113.479L282.724 114.693L282.858 114.521Z" fill="var(--fill-0, black)"/>
<path id="Vector_328" d="M294.914 114.558L293.255 113.261L293.113 113.442L294.772 114.739L294.914 114.558Z" fill="var(--fill-0, black)"/>
<path id="Vector_329" d="M305.235 114.806L306.954 113.391L306.792 113.194L305.073 114.609L305.235 114.806Z" fill="var(--fill-0, black)"/>
<path id="Vector_330" d="M317.201 114.866L318.999 113.337L318.826 113.134L317.029 114.663L317.201 114.866Z" fill="var(--fill-0, black)"/>
<path id="Vector_331" d="M330.797 113.02L329.034 114.783L329.231 114.98L330.993 113.217L330.797 113.02Z" fill="var(--fill-0, black)"/>
<path id="Vector_332" d="M341.386 115.19L342.891 112.98L342.641 112.81L341.136 115.02L341.386 115.19Z" fill="var(--fill-0, black)"/>
<path id="Vector_333" d="M353.761 115.396L354.567 112.694L354.266 112.604L353.46 115.306L353.761 115.396Z" fill="var(--fill-0, black)"/>
<path id="Vector_334" d="M365.546 115.416L366.779 112.72L366.481 112.584L365.249 115.28L365.546 115.416Z" fill="var(--fill-0, black)"/>
<path id="Vector_335" d="M378.631 112.569L377.092 115.257L377.397 115.431L378.935 112.743L378.631 112.569Z" fill="var(--fill-0, black)"/>
<path id="Vector_336" d="M390.137 115.658L390.265 112.357L389.89 112.342L389.763 115.643L390.137 115.658Z" fill="var(--fill-0, black)"/>
<path id="Vector_337" d="M401.925 115.733L402.485 112.33L402.103 112.267L401.543 115.67L401.925 115.733Z" fill="var(--fill-0, black)"/>
<path id="Vector_338" d="M413.814 112.197V115.803H414.213V112.197H413.814Z" fill="var(--fill-0, black)"/>
<path id="Vector_339" d="M427.041 115.619L425.367 112.195L424.986 112.381L426.661 115.805L427.041 115.619Z" fill="var(--fill-0, black)"/>
<path id="Vector_340" d="M439.053 115.705L437.381 112.106L436.975 112.295L438.647 115.894L439.053 115.705Z" fill="var(--fill-0, black)"/>
<path id="Vector_341" d="M42.1034 125.993L41.9985 125.911L41.924 126.007L42.0289 126.089L42.1034 125.993Z" fill="var(--fill-0, black)"/>
<path id="Vector_342" d="M54.1081 125.997L53.9937 125.908L53.9192 126.003L54.0336 126.092L54.1081 125.997Z" fill="var(--fill-0, black)"/>
<path id="Vector_343" d="M66.1177 126.004L65.9842 125.9L65.9097 125.996L66.0432 126.1L66.1177 126.004Z" fill="var(--fill-0, black)"/>
<path id="Vector_344" d="M78.132 126.016L77.9699 125.889L77.8954 125.984L78.0575 126.111L78.132 126.016Z" fill="var(--fill-0, black)"/>
<path id="Vector_345" d="M90.151 126.031L89.9508 125.874L89.8763 125.969L90.0765 126.126L90.151 126.031Z" fill="var(--fill-0, black)"/>
<path id="Vector_346" d="M102.165 126.042L101.937 125.863L101.862 125.958L102.091 126.137L102.165 126.042Z" fill="var(--fill-0, black)"/>
<path id="Vector_347" d="M114.189 126.06L113.913 125.844L113.838 125.94L114.115 126.156L114.189 126.06Z" fill="var(--fill-0, black)"/>
<path id="Vector_348" d="M126.213 126.079L125.889 125.826L125.814 125.921L126.139 126.174L126.213 126.079Z" fill="var(--fill-0, black)"/>
<path id="Vector_349" d="M138.232 126.094L137.87 125.811L137.795 125.906L138.158 126.189L138.232 126.094Z" fill="var(--fill-0, black)"/>
<path id="Vector_350" d="M150.256 126.112L149.846 125.792L149.771 125.888L150.181 126.208L150.256 126.112Z" fill="var(--fill-0, black)"/>
<path id="Vector_351" d="M162.289 126.139L161.813 125.766L161.738 125.861L162.215 126.234L162.289 126.139Z" fill="var(--fill-0, black)"/>
<path id="Vector_352" d="M174.308 126.153L173.793 125.751L173.719 125.847L174.234 126.249L174.308 126.153Z" fill="var(--fill-0, black)"/>
<path id="Vector_353" d="M186.342 126.18L185.76 125.725L185.686 125.82L186.267 126.275L186.342 126.18Z" fill="var(--fill-0, black)"/>
<path id="Vector_354" d="M198.375 126.206L197.727 125.699L197.652 125.794L198.301 126.301L198.375 126.206Z" fill="var(--fill-0, black)"/>
<path id="Vector_355" d="M210.399 126.224L209.703 125.68L209.628 125.776L210.324 126.32L210.399 126.224Z" fill="var(--fill-0, black)"/>
<path id="Vector_356" d="M222.437 126.254L221.665 125.651L221.59 125.746L222.363 126.349L222.437 126.254Z" fill="var(--fill-0, black)"/>
<path id="Vector_357" d="M234.475 126.284L233.627 125.621L233.552 125.716L234.401 126.379L234.475 126.284Z" fill="var(--fill-0, black)"/>
<path id="Vector_358" d="M246.508 126.301L245.602 125.594L245.52 125.699L246.426 126.406L246.508 126.301Z" fill="var(--fill-0, black)"/>
<path id="Vector_359" d="M258.549 126.326L257.567 125.559L257.478 125.674L258.46 126.441L258.549 126.326Z" fill="var(--fill-0, black)"/>
<path id="Vector_360" d="M270.596 126.355L269.528 125.521L269.431 125.645L270.499 126.479L270.596 126.355Z" fill="var(--fill-0, black)"/>
<path id="Vector_361" d="M282.643 126.384L281.489 125.483L281.385 125.616L282.538 126.517L282.643 126.384Z" fill="var(--fill-0, black)"/>
<path id="Vector_362" d="M294.671 126.406L293.46 125.46L293.356 125.594L294.567 126.54L294.671 126.406Z" fill="var(--fill-0, black)"/>
<path id="Vector_363" d="M306.741 126.445L305.406 125.402L305.287 125.555L306.622 126.598L306.741 126.445Z" fill="var(--fill-0, black)"/>
<path id="Vector_364" d="M318.574 125.302L317.316 126.56L317.453 126.697L318.711 125.439L318.574 125.302Z" fill="var(--fill-0, black)"/>
<path id="Vector_365" d="M330.829 126.499L329.332 125.329L329.198 125.501L330.695 126.671L330.829 126.499Z" fill="var(--fill-0, black)"/>
<path id="Vector_366" d="M342.881 126.531L341.288 125.287L341.147 125.469L342.739 126.713L342.881 126.531Z" fill="var(--fill-0, black)"/>
<path id="Vector_367" d="M354.932 126.564L353.244 125.245L353.095 125.436L354.783 126.755L354.932 126.564Z" fill="var(--fill-0, black)"/>
<path id="Vector_368" d="M365.673 127.067L366.586 125.037L366.355 124.933L365.441 126.963L365.673 127.067Z" fill="var(--fill-0, black)"/>
<path id="Vector_369" d="M378.484 124.91L377.312 126.958L377.543 127.09L378.715 125.042L378.484 124.91Z" fill="var(--fill-0, black)"/>
<path id="Vector_370" d="M390.105 127.251L390.201 124.76L389.923 124.749L389.827 127.24L390.105 127.251Z" fill="var(--fill-0, black)"/>
<path id="Vector_371" d="M403.142 126.698L401.064 125.074L400.885 125.302L402.964 126.926L403.142 126.698Z" fill="var(--fill-0, black)"/>
<path id="Vector_372" d="M413.862 124.639V127.361H414.165V124.639H413.862Z" fill="var(--fill-0, black)"/>
<path id="Vector_373" d="M427.263 126.769L424.965 124.974L424.764 125.231L427.062 127.026L427.263 126.769Z" fill="var(--fill-0, black)"/>
<path id="Vector_374" d="M439.305 126.794L436.931 124.939L436.722 125.206L439.096 127.061L439.305 126.794Z" fill="var(--fill-0, black)"/>
<path id="Vector_375" d="M42.1034 137.993L41.9985 137.911L41.924 138.007L42.0289 138.089L42.1034 137.993Z" fill="var(--fill-0, black)"/>
<path id="Vector_376" d="M54.1034 137.993L53.9985 137.911L53.924 138.007L54.0289 138.089L54.1034 137.993Z" fill="var(--fill-0, black)"/>
<path id="Vector_377" d="M66.1129 138.001L65.9889 137.904L65.9144 137.999L66.0384 138.096L66.1129 138.001Z" fill="var(--fill-0, black)"/>
<path id="Vector_378" d="M78.1224 138.008L77.9794 137.896L77.9049 137.992L78.0479 138.104L78.1224 138.008Z" fill="var(--fill-0, black)"/>
<path id="Vector_379" d="M90.132 138.016L89.9699 137.889L89.8954 137.984L90.0575 138.111L90.132 138.016Z" fill="var(--fill-0, black)"/>
<path id="Vector_380" d="M102.146 138.027L101.956 137.878L101.881 137.973L102.072 138.122L102.146 138.027Z" fill="var(--fill-0, black)"/>
<path id="Vector_381" d="M114.156 138.034L113.946 137.87L113.872 137.966L114.081 138.13L114.156 138.034Z" fill="var(--fill-0, black)"/>
<path id="Vector_382" d="M126.17 138.045L125.932 137.859L125.857 137.955L126.096 138.141L126.17 138.045Z" fill="var(--fill-0, black)"/>
<path id="Vector_383" d="M138.189 138.06L137.913 137.844L137.838 137.94L138.115 138.156L138.189 138.06Z" fill="var(--fill-0, black)"/>
<path id="Vector_384" d="M150.203 138.072L149.898 137.833L149.824 137.928L150.129 138.167L150.203 138.072Z" fill="var(--fill-0, black)"/>
<path id="Vector_385" d="M162.223 138.086L161.879 137.818L161.805 137.914L162.148 138.182L162.223 138.086Z" fill="var(--fill-0, black)"/>
<path id="Vector_386" d="M174.237 138.098L173.865 137.807L173.79 137.902L174.162 138.193L174.237 138.098Z" fill="var(--fill-0, black)"/>
<path id="Vector_387" d="M186.256 138.112L185.846 137.792L185.771 137.888L186.181 138.208L186.256 138.112Z" fill="var(--fill-0, black)"/>
<path id="Vector_388" d="M198.28 138.131L197.822 137.774L197.748 137.869L198.205 138.226L198.28 138.131Z" fill="var(--fill-0, black)"/>
<path id="Vector_389" d="M210.299 138.146L209.803 137.759L209.729 137.854L210.224 138.241L210.299 138.146Z" fill="var(--fill-0, black)"/>
<path id="Vector_390" d="M222.318 138.161L221.784 137.744L221.709 137.839L222.243 138.256L222.318 138.161Z" fill="var(--fill-0, black)"/>
<path id="Vector_391" d="M234.342 138.18L233.76 137.725L233.686 137.82L234.267 138.275L234.342 138.18Z" fill="var(--fill-0, black)"/>
<path id="Vector_392" d="M246.366 138.198L245.736 137.706L245.662 137.802L246.291 138.294L246.366 138.198Z" fill="var(--fill-0, black)"/>
<path id="Vector_393" d="M258.389 138.217L257.712 137.688L257.638 137.783L258.315 138.312L258.389 138.217Z" fill="var(--fill-0, black)"/>
<path id="Vector_394" d="M270.428 138.247L269.674 137.658L269.6 137.753L270.353 138.342L270.428 138.247Z" fill="var(--fill-0, black)"/>
<path id="Vector_395" d="M282.451 138.265L281.65 137.639L281.576 137.735L282.377 138.361L282.451 138.265Z" fill="var(--fill-0, black)"/>
<path id="Vector_396" d="M294.475 138.284L293.627 137.621L293.552 137.716L294.401 138.379L294.475 138.284Z" fill="var(--fill-0, black)"/>
<path id="Vector_397" d="M306.386 137.534L305.547 138.372L305.641 138.466L306.48 137.628L306.386 137.534Z" fill="var(--fill-0, black)"/>
<path id="Vector_398" d="M318.549 138.326L317.567 137.559L317.478 137.674L318.46 138.441L318.549 138.326Z" fill="var(--fill-0, black)"/>
<path id="Vector_399" d="M330.578 138.349L329.539 137.537L329.449 137.651L330.489 138.463L330.578 138.349Z" fill="var(--fill-0, black)"/>
<path id="Vector_400" d="M342.625 138.378L341.5 137.499L341.403 137.622L342.528 138.501L342.625 138.378Z" fill="var(--fill-0, black)"/>
<path id="Vector_401" d="M354.657 138.395L353.475 137.471L353.37 137.605L354.553 138.529L354.657 138.395Z" fill="var(--fill-0, black)"/>
<path id="Vector_402" d="M366.694 138.416L365.445 137.441L365.333 137.584L366.582 138.559L366.694 138.416Z" fill="var(--fill-0, black)"/>
<path id="Vector_403" d="M378.723 138.439L377.416 137.418L377.305 137.561L378.611 138.582L378.723 138.439Z" fill="var(--fill-0, black)"/>
<path id="Vector_404" d="M390.774 138.471L389.372 137.376L389.253 137.529L390.655 138.624L390.774 138.471Z" fill="var(--fill-0, black)"/>
<path id="Vector_405" d="M402.806 138.489L401.348 137.349L401.221 137.511L402.68 138.651L402.806 138.489Z" fill="var(--fill-0, black)"/>
<path id="Vector_406" d="M413.905 137.032V138.968H414.123V137.032H413.905Z" fill="var(--fill-0, black)"/>
<path id="Vector_407" d="M426.895 138.543L425.274 137.276L425.132 137.457L426.753 138.724L426.895 138.543Z" fill="var(--fill-0, black)"/>
<path id="Vector_408" d="M438.932 138.564L437.244 137.245L437.095 137.436L438.783 138.755L438.932 138.564Z" fill="var(--fill-0, black)"/>
</g>
</g>
<defs>
<clipPath id="clip0_0_4">
<rect width="444.014" height="156" fill="white"/>
</clipPath>
<clipPath id="clip1_0_4">
<rect width="408" height="144" fill="white" transform="translate(36.0137)"/>
</clipPath>
</defs>
</svg>
